<svg xmlns="http://www.w3.org/2000/svg" xmlns:xlink="http://www.w3.org/1999/xlink" width="100" height="100" viewBox="0 0 100 100"><circle stroke="none" fill="#1A1A1A" r="48%" cx="50%" cy="50%"></circle><g transform="translate(50 50) scale(0.69 0.69) rotate(0) translate(-50 -50)" style="fill:#FFFFFF"><svg fill="#FFFFFF" xmlns="http://www.w3.org/2000/svg" xmlns:xlink="http://www.w3.org/1999/xlink" version="1.1" x="0px" y="0px" viewBox="0 0 100 100" style="enable-background:new 0 0 100 100;" xml:space="preserve"><path d="M49.98,50.83c-3.57-2.01-7.37-2.34-10.68-0.93c-3.31,1.41-5.7,4.37-6.73,8.34c-0.99,3.83-0.59,8.16,1.13,12.2  c2.88,6.77,8.81,11.05,14.49,11.05c1.43,0,2.85-0.27,4.2-0.85c3.31-1.41,5.7-4.37,6.73-8.34c0.99-3.83,0.59-8.16-1.13-12.2  C56.27,56.06,53.42,52.77,49.98,50.83z M36.46,69.27c-1.46-3.44-1.81-7.08-0.99-10.27c0.7-2.71,2.19-4.78,4.22-5.94  c-0.96,3.72-0.58,9.04,5.07,12.94c6.1,4.21,4.29,10.72,3.65,12.5C43.84,78.64,38.9,75.01,36.46,69.27z M56.22,71.55  c-0.72,2.8-2.29,4.91-4.42,6.04c0.89-4.06,0.48-10.05-5.33-14.07c-6.09-4.21-3.91-10.01-3.23-11.47c0.1,0,0.2-0.01,0.31-0.01  c1.62,0,3.31,0.47,4.97,1.4c2.87,1.62,5.26,4.4,6.72,7.83c0,0,0,0,0,0C56.69,64.71,57.04,68.36,56.22,71.55z"></path><path d="M73.83,33.47c-0.86-3.31-2.85-5.78-5.62-6.96c-2.77-1.18-5.93-0.91-8.91,0.77c-2.85,1.6-5.2,4.32-6.62,7.65v0  c-1.42,3.33-1.75,6.91-0.93,10.08c0.86,3.31,2.85,5.78,5.62,6.96c1.13,0.48,2.32,0.71,3.51,0.71c4.72,0,9.63-3.54,12.01-9.13  C74.32,40.21,74.65,36.64,73.83,33.47z M54.66,44.26c-0.65-2.53-0.37-5.42,0.79-8.15v0c1.16-2.73,3.05-4.94,5.33-6.21  c1.3-0.73,2.62-1.1,3.89-1.1c0.02,0,0.04,0,0.06,0c0.59,1.32,2.02,5.6-2.6,8.79c-4.54,3.14-5.12,7.73-4.56,11.07  C56.18,47.73,55.16,46.21,54.66,44.26z M70.14,42.37c-1.9,4.46-5.69,7.33-9.22,7.32c-0.54-1.59-1.69-6.45,2.91-9.63  c4.37-3.02,4.95-7.06,4.37-10.11c1.29,0.94,2.24,2.41,2.72,4.27C71.58,36.75,71.3,39.64,70.14,42.37z"></path><path d="M35.97,39.79c1.48,0.83,3.02,1.25,4.51,1.25c1.04,0,2.05-0.2,3.02-0.61c4.7-2,6.48-8.41,3.98-14.29c0,0,0,0,0,0  c-2.5-5.88-8.36-9.03-13.06-7.03c-2.34,1-4.03,3.08-4.75,5.87c-0.68,2.65-0.41,5.63,0.78,8.42C31.62,36.18,33.59,38.45,35.97,39.79z   M44.72,27.32L44.72,27.32c1.58,3.71,1.03,7.62-1.13,9.54c0.29-2.74-0.4-6.22-3.93-8.66c-3.42-2.37-2.6-5.48-2.1-6.69  C40.3,21.56,43.23,23.82,44.72,27.32z M32.57,25.73c0.31-1.18,0.85-2.17,1.59-2.89c-0.27,2.47,0.44,5.5,3.8,7.82  c3.43,2.37,2.77,5.95,2.34,7.36c-0.93-0.04-1.9-0.32-2.85-0.85c-1.81-1.02-3.31-2.78-4.24-4.95C32.27,30.04,32.05,27.74,32.57,25.73  z"></path></svg></g></svg>