<svg xmlns="http://www.w3.org/2000/svg" xmlns:xlink="http://www.w3.org/1999/xlink" width="100" height="100" viewBox="0 0 100 100"><circle stroke="none" fill="#1A1A1A" r="48%" cx="50%" cy="50%"></circle><g transform="translate(50 50) scale(0.69 0.69) rotate(0) translate(-50 -50)" style="fill:#FFFFFF"><svg fill="#FFFFFF" xmlns="http://www.w3.org/2000/svg" viewBox="0 0 32 32" x="0px" y="0px"><title>shopping business technology strategy communication job professional</title><g><path d="M30.35,6.71A2,2,0,0,0,28.82,6H6.31L6.12,4.7a2,2,0,0,0-2-1.7H1A1,1,0,0,0,1,5H4.14L6.88,23.3a2,2,0,0,0,2,1.7H28a1,1,0,0,0,0-2H8.86l-.45-3H27.15a2,2,0,0,0,2-1.67l1.66-10A2,2,0,0,0,30.35,6.71ZM27.15,18h-19L6.61,8H28.82Z"></path><circle cx="11" cy="29" r="2"></circle><circle cx="24" cy="29" r="2"></circle></g></svg></g></svg>